<?xml version="1.0" encoding="utf-8"?>
<!-- Generator: Adobe Illustrator 23.0.2, SVG Export Plug-In . SVG Version: 6.00 Build 0)  -->
<svg version="1.1" id="Layer_1" xmlns="http://www.w3.org/2000/svg" xmlns:xlink="http://www.w3.org/1999/xlink" x="0px" y="0px"
	 viewBox="0 0 218 60" style="enable-background:new 0 0 218 60;" xml:space="preserve">
<g>
	<path d="M30,60C13.5,60,0,46.5,0,30C0,13.5,13.5,0,30,0c16.5,0,30,13.5,30,30C60,46.5,46.5,60,30,60z M29.9,18.2
		c0,0,2.4,2.6,2.4,4.6c0,2.2-1.7,2.8-2.3,2.8c0,0-0.1,0-0.1,0h0c0,0-0.1,0-0.1,0c-0.6,0-2.3-0.5-2.3-2.8
		C27.5,20.7,29.8,18.2,29.9,18.2z M7.3,31.7H10v-5.1h4.6v-2.1H10v-2.8h4.8v-2.1H7.3V31.7z M32.4,18.5h2.9L31.9,6.4h-3.7l-3.5,12.1
		h2.7l0.8-2.7h3.5L32.4,18.5z M31.2,13.8h-2.5l1.2-5.3H30L31.2,13.8z M43.8,25.6c0,3.6,1.6,6.3,5.1,6.3c3.5,0,5.2-2.7,5.2-6.3
		c0-3.6-1.7-6.3-5.2-6.3C45.5,19.4,43.8,22.1,43.8,25.6z M46.8,25.6c0-2.3,0.6-4.2,2.2-4.2c1.6,0,2.2,1.9,2.2,4.2
		c0,2.3-0.6,4.2-2.2,4.2C47.3,29.8,46.8,27.9,46.8,25.6z M28.7,56.7c0.2-1.2,0.3-3,0.3-5.2c0-0.6,0-0.2,0-0.4c0-3.1-0.1-4.1-2.2-4.8
		c-3.2-1.1-4.5-4.6-3.8-9.1L12.4,10C6.8,14.9,3.3,22,3.3,30C3.3,44.3,14.6,56,28.7,56.7z M30,39.3c-4.2-1-5.8-4.9-5.8-8.3L14.8,8.1
		c-0.6,0.4-1.2,0.9-1.8,1.3c2.1,4.9,11.3,26.8,11.3,26.8c1.6,3.9,4.6,2.6,5.3,5.9c0.2,0.8,0.2,1.1,0.2,1.1h0.3c0,0,0-0.3,0.2-1.1
		c0.7-3.3,3.7-1.9,5.3-5.9c0,0,9.2-21.9,11.3-26.8c-0.6-0.5-1.2-0.9-1.8-1.3L35.8,31C35.8,34.5,34.3,38.3,30,39.3L30,39.3z M30,32.4
		c-1.8-0.4-4-2.2-4.3-4.5c-0.1-0.9-0.2-1.1-0.1-2.9L17.4,6.5c-0.7,0.4-1.3,0.7-1.9,1.2c2.5,5.5,9.9,22.3,9.9,22.4
		c1.2,2.5,3.3,2.5,4,4c0.4,0.9,0.5,1.7,0.5,1.7h0.3c0-0.1,0-0.9,0.5-1.7c0.7-1.5,2.8-1.5,4-4c0,0,7.5-16.8,9.9-22.4
		c-0.6-0.4-1.3-0.8-1.9-1.2L34.4,25c0.1,1.7,0,2-0.1,2.9C34.1,30.2,31.8,32,30,32.4L30,32.4z M30.1,29.3l0.1-1
		c0.5-2.3,2.2-2.1,3.4-4.4c0,0,0,0,0,0c0-0.1,5.8-12.5,8.3-17.7C38.3,4.3,34.3,3.3,30,3.3c-4.3,0-8.3,1-11.9,2.8
		c2.4,5.2,8.2,17.6,8.3,17.7c0,0,0,0,0,0c1.2,2.3,2.9,2,3.4,4.4l0.1,1H30.1z M56.7,30c0-8-3.5-15.1-9.1-20L36.9,37.1
		c0.7,4.4-0.6,8-3.8,9.1C31.1,46.9,31,47.9,31,51c0,0.2,0-0.2,0,0.4c0,2.2,0.2,4.1,0.3,5.2C45.4,56,56.7,44.3,56.7,30z M11.7,37.9
		c0,0,0.4,0.8,0.7,1.4c0.3,0.6,0.8,1.3,0.8,1.3L12.5,41c0,0-0.5-0.9-1-1.9c-0.1,0.1-1,0.5-1.1,0.6c0.1,0.1,0.9,1.8,0.9,1.8l-0.7,0.4
		c0,0-0.9-1.7-1-1.8c-0.2,0.1-2,1-2,1l-0.4-0.9L11.7,37.9L11.7,37.9z M14.6,42.4l0.6,0.8l-3.9,3.3l-0.6-0.7L14.6,42.4L14.6,42.4z
		 M18.2,45.9l0.8,0.6l-1,5.4l-0.9-0.5c0,0,0.2-1.1,0.2-1.2c0,0-0.6-0.3-1.1-0.7c-0.5-0.4-1-0.8-1-0.8c-0.1,0.1-1.1,0.6-1.1,0.6
		l-0.8-0.6L18.2,45.9L18.2,45.9z M15.9,48.1c0.1,0.1,0.4,0.3,0.8,0.6c0.3,0.2,0.7,0.5,0.8,0.5c0-0.2,0.4-2,0.5-2.3
		C17.7,47.1,16.1,48,15.9,48.1z M21.4,47.8c0,0,0.8,0.4,2,0.8c0.8,0.3,1.5,0.5,2.1,0.6l-0.2,0.8c0,0-0.6-0.1-1.7-0.4
		c-0.1,0.2-1.4,4-1.4,4l-0.9-0.3c0,0,1.3-3.8,1.4-4c-1-0.4-1.6-0.7-1.6-0.7L21.4,47.8z M37.4,48.9c0.3,0.2,0.6,0.5,0.7,0.9
		c0.1,0.2,0.1,0.4,0.1,0.5c0,0.7-0.5,1.3-1.4,1.5c0,0-0.5,0.1-0.6,0.2c0.1,0.2,0.6,1.9,0.6,1.9l-0.9,0.2l-1.5-4.9l1.3-0.4
		C36.5,48.6,37,48.6,37.4,48.9z M35.5,49.8c0,0.1,0.4,1.3,0.5,1.5c0.2-0.1,0.6-0.2,0.6-0.2c0.1,0,0.5-0.2,0.6-0.5
		c0-0.1,0.1-0.2,0.1-0.3c0-0.1,0-0.2,0-0.3c-0.1-0.2-0.2-0.3-0.3-0.4c-0.3-0.1-0.6-0.1-0.9,0C36,49.6,35.7,49.7,35.5,49.8z
		 M40.5,46.7l4.4,3.2l-0.8,0.5c0,0-0.9-0.7-1-0.7c-0.1,0-0.5,0.4-1,0.6c-0.5,0.3-1,0.5-1,0.6c0,0.1,0.2,1.2,0.2,1.2l-0.8,0.4
		l-0.7-5.4L40.5,46.7z M41,50.1c0.1-0.1,0.5-0.2,0.8-0.5c0.3-0.2,0.5-0.3,0.7-0.4c-0.2-0.1-1.6-1.2-1.8-1.4
		C40.7,48.2,40.9,49.9,41,50.1z M45.5,42.3l3.8,3.4l-0.7,0.8c0,0-3.6-1.1-4.1-1.2c0.4,0.4,2.6,2.7,2.6,2.7l-0.7,0.6L42.8,45l0.8-0.8
		c0,0,3.5,1,4,1.2C47.3,45,44.9,43,44.9,43L45.5,42.3z M47.3,39.7l4.4,2.6l-0.5,0.8l-4.5-2.6L47.3,39.7z M49.2,35.5l0.8,0.4
		l-0.1,0.1c-0.2,0.3-0.4,0.5-0.5,0.8c-0.1,0.2-0.1,0.4,0,0.7c0.1,0.1,0.2,0.2,0.3,0.3c0.3,0.1,0.6-0.2,1-0.5c0.5-0.5,1.1-1.1,2-0.7
		c1,0.3,1.3,1.2,0.9,2.3c-0.1,0.4-0.3,0.7-0.5,0.9l0,0.1l-0.8-0.4l0.1-0.1c0.1-0.1,0.4-0.5,0.5-0.9c0.1-0.3,0.1-0.9-0.4-1.1
		c-0.4-0.1-0.7,0.2-1.1,0.6c-0.5,0.5-1,1-1.8,0.7c-0.4-0.1-0.7-0.4-0.8-0.7c-0.2-0.4-0.2-0.9,0-1.4C48.7,36.2,48.9,35.8,49.2,35.5
		L49.2,35.5z"/>
</g>
<g>
	<g>
		<path d="M72,5.3h6V7h-3.8v3.2h3.6V12h-3.6v5.1H72V5.3z"/>
		<path d="M82.7,8.3c1.8,0,3.8,0.9,3.8,4.5c0,3.7-2,4.5-3.8,4.5c-1.8,0-3.8-0.8-3.8-4.5C78.8,9.2,80.9,8.3,82.7,8.3z M82.7,15.8
			c1.4,0,1.7-1.6,1.7-3c0-1.5-0.3-3-1.7-3c-1.4,0-1.7,1.5-1.7,3C81,14.2,81.3,15.8,82.7,15.8z"/>
		<path d="M91.7,8.3c1.8,0,3.8,0.9,3.8,4.5c0,3.7-2,4.5-3.8,4.5c-1.8,0-3.8-0.8-3.8-4.5C87.9,9.2,90,8.3,91.7,8.3z M91.7,15.8
			c1.4,0,1.7-1.6,1.7-3c0-1.5-0.3-3-1.7-3c-1.4,0-1.7,1.5-1.7,3C90.1,14.2,90.4,15.8,91.7,15.8z"/>
		<path d="M104.4,4.4v11.2c0,0.6,0,1.2,0.1,1.5h-2c0-0.3-0.1-0.8-0.1-1.4h-0.1c-0.3,0.7-1,1.5-2.3,1.5c-2.2,0-3.1-2.1-3.1-4.5
			c0-2.8,1.1-4.5,3-4.5c1.3,0,1.9,0.7,2.3,1.4h0V4.4H104.4z M100.6,15.7c1.2,0,1.7-1.3,1.7-3c0-1.7-0.5-2.9-1.6-2.9
			c-1.2,0-1.6,1.1-1.6,2.9C99.1,14.7,99.4,15.7,100.6,15.7z"/>
		<path d="M111.1,8.9c0.6-0.3,1.4-0.6,2.8-0.6c2.7,0,3.3,1.3,3.3,3.5v3.8c0,0.6,0.1,1.2,0.1,1.5h-1.9c-0.1-0.3-0.1-0.8-0.1-1.2h0
			c-0.5,0.7-1.2,1.3-2.4,1.3c-1.4,0-2.6-0.9-2.6-2.6c0-2.4,1.9-3,4.6-3h0.4v-0.3c0-0.9-0.4-1.7-1.6-1.7c-1.1,0-2,0.5-2.4,0.8
			L111.1,8.9z M115.3,12.9h-0.2c-1.8,0-2.9,0.4-2.9,1.6c0,0.8,0.5,1.3,1.3,1.3c1.3,0,1.7-0.9,1.7-2.5V12.9z"/>
		<path d="M119.2,9.9c0-0.5,0-1-0.1-1.4h2c0,0.4,0.1,0.9,0.1,1.3h0c0.3-0.5,0.9-1.5,2.3-1.5c2,0,2.6,1.5,2.6,3.2v5.6H124v-5.2
			c0-1.3-0.3-1.9-1.2-1.9c-1.1,0-1.5,0.9-1.5,2v5.1h-2.1V9.9z"/>
		<path d="M135.1,4.4v11.2c0,0.6,0,1.2,0.1,1.5h-2c0-0.3-0.1-0.8-0.1-1.4h-0.1c-0.3,0.7-1,1.5-2.3,1.5c-2.2,0-3.1-2.1-3.1-4.5
			c0-2.8,1.1-4.5,3-4.5c1.3,0,1.9,0.7,2.3,1.4h0V4.4H135.1z M131.3,15.7c1.2,0,1.7-1.3,1.7-3c0-1.7-0.5-2.9-1.6-2.9
			c-1.2,0-1.6,1.1-1.6,2.9C129.8,14.7,130.1,15.7,131.3,15.7z"/>
		<path d="M146.7,14.3h-4.1l-0.8,2.8h-2.2l4-11.8h2.4l3.8,11.8h-2.2L146.7,14.3z M146.3,12.6l-1.5-5.5h0l-1.6,5.5H146.3z"/>
		<path d="M151.1,18.5c0.5,0.3,1.5,0.7,2.6,0.7c2,0,2.3-1.4,2.3-2.7v-0.8h0c-0.3,0.7-0.9,1.5-2.3,1.5c-1.2,0-3-0.8-3-4.3
			c0-2.4,0.9-4.5,3.1-4.5c1.3,0,1.9,0.7,2.3,1.5h0.1c0-0.5,0.1-0.9,0.1-1.4h1.9c0,0.5-0.1,0.9-0.1,1.4v6.4c0,2.7-0.8,4.7-4,4.7
			c-1.4,0-2.5-0.4-3-0.5L151.1,18.5z M154.1,15.6c1.3,0,1.8-0.9,1.8-2.9c0-1.8-0.7-2.8-1.7-2.8c-1.1,0-1.5,1-1.5,2.8
			C152.8,14.7,153.4,15.6,154.1,15.6z"/>
		<path d="M160,9.9c0-0.5,0-1-0.1-1.4h1.9c0,0.5,0.1,1.1,0.1,1.6h0c0.3-0.7,0.9-1.7,2.2-1.7c0.1,0,0.2,0,0.4,0.1v2
			c-0.2-0.1-0.4-0.1-0.6-0.1c-0.9,0-1.8,0.5-1.8,2.1v4.8H160V9.9z"/>
		<path d="M166,4.7h2.2v2.1H166V4.7z M166.1,8.4h2.1v8.7h-2.1V8.4z"/>
		<path d="M176.2,16.9c-0.5,0.2-1.2,0.4-2.1,0.4c-2.9,0-4.1-2-4.1-4.5c0-2.5,1.3-4.5,4.2-4.5c0.7,0,1.4,0.2,1.8,0.4l-0.1,1.7
			c-0.4-0.2-0.9-0.4-1.5-0.4c-1.6,0-2.3,1.1-2.3,2.9c0,1.6,0.8,2.9,2.4,2.9c0.5,0,1.2-0.2,1.5-0.4L176.2,16.9z"/>
		<path d="M184.4,15.7c0,0.5,0,1,0.1,1.4h-2c0-0.4-0.1-0.9-0.1-1.3l-0.1,0l0,0c-0.4,0.6-0.9,1.5-2.3,1.5c-2,0-2.6-1.5-2.6-3.2V8.4
			h2.1v5.2c0,1.3,0.4,1.9,1.3,1.9c1.1,0,1.4-1,1.4-2.1v-5h2.1V15.7z"/>
		<path d="M186.5,4.4h2.1v12.7h-2.1V4.4z"/>
		<path d="M191.4,6.6l2.1-0.6v2.4h1.7V10h-1.7v4.5c0,0.9,0.3,1.2,0.9,1.2c0.4,0,0.6-0.1,0.8-0.2V17c-0.3,0.2-0.8,0.3-1.4,0.3
			c-1.6,0-2.4-0.7-2.4-2.5V10H190V8.4h1.4V6.6z"/>
		<path d="M203.5,15.7c0,0.5,0,1,0.1,1.4h-2c0-0.4-0.1-0.9-0.1-1.3l-0.1,0l0,0c-0.4,0.6-0.9,1.5-2.3,1.5c-2,0-2.6-1.5-2.6-3.2V8.4
			h2.1v5.2c0,1.3,0.4,1.9,1.3,1.9c1.1,0,1.4-1,1.4-2.1v-5h2.1V15.7z"/>
		<path d="M205.5,9.9c0-0.5,0-1-0.1-1.4h1.9c0,0.5,0.1,1.1,0.1,1.6h0c0.3-0.7,0.9-1.7,2.2-1.7c0.1,0,0.2,0,0.4,0.1v2
			c-0.2-0.1-0.4-0.1-0.6-0.1c-0.9,0-1.8,0.5-1.8,2.1v4.8h-2.1V9.9z"/>
		<path d="M217.6,16.7c-0.4,0.2-1.4,0.6-2.6,0.6c-2.8,0-4-2-4-4.4c0-2.6,1.4-4.6,3.6-4.6c1.9,0,3.5,1.1,3.5,4.7v0.4h-5
			c0,1.5,0.6,2.4,2.2,2.4c1.3,0,1.9-0.4,2.3-0.7L217.6,16.7z M216,12c0-1.5-0.5-2.3-1.5-2.3c-1.1,0-1.6,1.2-1.6,2.3H216z"/>
		<path d="M76.2,24.3c2.5,0,4.7,1.8,4.7,6.1c0,4.2-2.3,6.1-4.7,6.1c-2.5,0-4.7-1.8-4.7-6.1C71.5,26.1,73.7,24.3,76.2,24.3z
			 M76.2,34.8c1.4,0,2.5-1.2,2.5-4.4s-1.1-4.4-2.5-4.4s-2.5,1.2-2.5,4.4S74.8,34.8,76.2,34.8z"/>
		<path d="M82.7,29c0-0.5,0-1-0.1-1.4h1.9c0,0.5,0.1,1.1,0.1,1.6h0c0.3-0.7,0.9-1.7,2.2-1.7c0.1,0,0.2,0,0.4,0.1v2
			c-0.2-0.1-0.4-0.1-0.6-0.1c-0.9,0-1.8,0.5-1.8,2.1v4.8h-2.1V29z"/>
		<path d="M88.7,37.6c0.5,0.3,1.5,0.7,2.6,0.7c2,0,2.3-1.4,2.3-2.7v-0.8h0c-0.3,0.7-0.9,1.5-2.3,1.5c-1.2,0-3-0.8-3-4.3
			c0-2.4,0.9-4.5,3.1-4.5c1.3,0,1.9,0.7,2.3,1.5h0.1c0-0.5,0.1-0.9,0.1-1.4h1.9c0,0.5-0.1,0.9-0.1,1.4v6.4c0,2.7-0.8,4.7-4,4.7
			c-1.4,0-2.5-0.4-3-0.5L88.7,37.6z M91.7,34.7c1.3,0,1.8-0.9,1.8-2.9c0-1.8-0.7-2.8-1.7-2.8c-1.1,0-1.5,1-1.5,2.8
			C90.3,33.9,91,34.7,91.7,34.7z"/>
		<path d="M97.9,28c0.6-0.3,1.4-0.6,2.8-0.6c2.7,0,3.3,1.3,3.3,3.5v3.8c0,0.6,0.1,1.2,0.1,1.5h-1.9c-0.1-0.3-0.1-0.8-0.1-1.2h0
			c-0.5,0.7-1.2,1.3-2.4,1.3c-1.4,0-2.6-0.9-2.6-2.6c0-2.4,1.9-3,4.6-3h0.4v-0.3c0-0.9-0.4-1.7-1.6-1.7c-1.1,0-2,0.5-2.4,0.8
			L97.9,28z M102,32h-0.2c-1.8,0-2.9,0.4-2.9,1.6c0,0.8,0.5,1.3,1.3,1.3c1.3,0,1.7-0.9,1.7-2.5V32z"/>
		<path d="M105.9,29c0-0.5,0-1-0.1-1.4h2c0,0.4,0.1,0.9,0.1,1.3h0c0.3-0.5,0.9-1.5,2.3-1.5c2,0,2.6,1.5,2.6,3.2v5.6h-2.1V31
			c0-1.3-0.3-1.9-1.2-1.9c-1.1,0-1.5,0.9-1.5,2v5.1h-2.1V29z"/>
		<path d="M114.9,23.8h2.2v2.1h-2.2V23.8z M114.9,27.5h2.1v8.7h-2.1V27.5z"/>
		<path d="M118.6,34.4l3.7-5.3h-3.6v-1.6h5.7v1.8l-3.7,5.3h3.8v1.6h-5.9V34.4z"/>
		<path d="M126.4,28c0.6-0.3,1.4-0.6,2.8-0.6c2.7,0,3.3,1.3,3.3,3.5v3.8c0,0.6,0.1,1.2,0.1,1.5h-1.9c-0.1-0.3-0.1-0.8-0.1-1.2h0
			c-0.5,0.7-1.2,1.3-2.4,1.3c-1.4,0-2.6-0.9-2.6-2.6c0-2.4,1.9-3,4.6-3h0.4v-0.3c0-0.9-0.4-1.7-1.6-1.7c-1.1,0-2,0.5-2.4,0.8
			L126.4,28z M130.6,32h-0.2c-1.8,0-2.9,0.4-2.9,1.6c0,0.8,0.5,1.3,1.3,1.3c1.3,0,1.7-0.9,1.7-2.5V32z"/>
		<path d="M135.2,25.7l2.1-0.6v2.4h1.7v1.5h-1.7v4.5c0,0.9,0.3,1.2,0.9,1.2c0.4,0,0.6-0.1,0.8-0.2v1.5c-0.3,0.2-0.8,0.3-1.4,0.3
			c-1.6,0-2.4-0.7-2.4-2.5v-4.8h-1.4v-1.5h1.4V25.7z"/>
		<path d="M140.6,23.8h2.2v2.1h-2.2V23.8z M140.6,27.5h2.1v8.7h-2.1V27.5z"/>
		<path d="M148.4,27.4c1.8,0,3.8,0.9,3.8,4.5c0,3.7-2,4.5-3.8,4.5c-1.8,0-3.8-0.8-3.8-4.5C144.6,28.3,146.6,27.4,148.4,27.4z
			 M148.4,34.9c1.4,0,1.7-1.6,1.7-3c0-1.5-0.3-3-1.7-3c-1.4,0-1.7,1.5-1.7,3C146.7,33.3,147.1,34.9,148.4,34.9z"/>
		<path d="M153.9,29c0-0.5,0-1-0.1-1.4h2c0,0.4,0.1,0.9,0.1,1.3h0c0.3-0.5,0.9-1.5,2.3-1.5c2,0,2.6,1.5,2.6,3.2v5.6h-2.1V31
			c0-1.3-0.3-1.9-1.2-1.9c-1.1,0-1.5,0.9-1.5,2v5.1h-2.1V29z"/>
		<path d="M170.7,27.4c1.8,0,3.8,0.9,3.8,4.5c0,3.7-2,4.5-3.8,4.5c-1.8,0-3.8-0.8-3.8-4.5C166.8,28.3,168.9,27.4,170.7,27.4z
			 M170.7,34.9c1.4,0,1.7-1.6,1.7-3c0-1.5-0.3-3-1.7-3c-1.4,0-1.7,1.5-1.7,3C169,33.3,169.3,34.9,170.7,34.9z"/>
		<path d="M176.8,29.1h-1.5v-1.5h1.5v-1.8c0-1.3,0.6-2.4,2.5-2.4c0.6,0,1.1,0.1,1.5,0.2l-0.1,1.5c-0.3-0.1-0.5-0.1-0.8-0.1
			c-0.6,0-1,0.4-1,1.1v1.5h1.6v1.5h-1.6v7.2h-2.1V29.1z"/>
		<path d="M187,25.7l2.1-0.6v2.4h1.7v1.5h-1.7v4.5c0,0.9,0.3,1.2,0.9,1.2c0.4,0,0.6-0.1,0.8-0.2v1.5c-0.3,0.2-0.8,0.3-1.4,0.3
			c-1.6,0-2.4-0.7-2.4-2.5v-4.8h-1.4v-1.5h1.4V25.7z"/>
		<path d="M192.1,23.6h2.1v5.1h0.1c0.4-0.5,0.9-1.3,2.2-1.3c2,0,2.6,1.5,2.6,3.2v5.6h-2.1V31c0-1.3-0.3-1.9-1.2-1.9
			c-1.1,0-1.5,0.9-1.5,2v5.1h-2.1V23.6z"/>
		<path d="M207.3,35.8c-0.4,0.2-1.4,0.6-2.6,0.6c-2.8,0-4-2-4-4.4c0-2.6,1.4-4.6,3.6-4.6c1.9,0,3.5,1.1,3.5,4.7v0.4h-5
			c0,1.5,0.6,2.4,2.2,2.4c1.3,0,1.9-0.4,2.3-0.7L207.3,35.8z M205.7,31.1c0-1.5-0.5-2.3-1.5-2.3c-1.1,0-1.6,1.2-1.6,2.3H205.7z"/>
		<path d="M74,43.6v7.6c0,2,0.6,2.6,1.9,2.6c1.2,0,1.8-0.6,1.8-2.6v-7.6h2.2v7.6c0,3.1-1.8,4.3-4,4.3c-2.2,0-4-1.2-4-4.3v-7.6H74z"
			/>
		<path d="M82,48.1c0-0.5,0-1-0.1-1.4h2c0,0.4,0.1,0.9,0.1,1.3h0c0.3-0.5,0.9-1.5,2.3-1.5c2,0,2.6,1.5,2.6,3.2v5.6h-2.1v-5.2
			c0-1.3-0.3-1.9-1.2-1.9c-1.1,0-1.5,0.9-1.5,2v5.1H82V48.1z"/>
		<path d="M90.9,43h2.2V45h-2.2V43z M91,46.7h2.1v8.7H91V46.7z"/>
		<path d="M95.9,44.9l2.1-0.6v2.4h1.7v1.5H98v4.5c0,0.9,0.3,1.2,0.9,1.2c0.4,0,0.6-0.1,0.8-0.2v1.5c-0.3,0.2-0.8,0.3-1.4,0.3
			c-1.6,0-2.4-0.7-2.4-2.5v-4.8h-1.4v-1.5h1.4V44.9z"/>
		<path d="M107.5,55c-0.4,0.2-1.4,0.6-2.6,0.6c-2.8,0-4-2-4-4.4c0-2.6,1.4-4.6,3.6-4.6c1.9,0,3.5,1.1,3.5,4.7v0.4h-5
			c0,1.5,0.6,2.4,2.2,2.4c1.3,0,1.9-0.4,2.3-0.7L107.5,55z M105.9,50.3c0-1.5-0.5-2.3-1.5-2.3c-1.1,0-1.6,1.2-1.6,2.3H105.9z"/>
		<path d="M116.7,42.7v11.2c0,0.6,0,1.2,0.1,1.5h-2c0-0.3-0.1-0.8-0.1-1.4h-0.1c-0.3,0.7-1,1.5-2.3,1.5c-2.2,0-3.1-2.1-3.1-4.5
			c0-2.8,1.1-4.5,3-4.5c1.3,0,1.9,0.7,2.3,1.4h0v-5.2H116.7z M113,54c1.2,0,1.7-1.3,1.7-3c0-1.7-0.5-2.9-1.6-2.9
			c-1.2,0-1.6,1.1-1.6,2.9C111.4,53,111.8,54,113,54z"/>
		<path d="M123.3,43.6h2.6l3.9,9.3h0v-9.3h2v11.8h-2.6l-3.9-9.2h0v9.2h-2V43.6z"/>
		<path d="M134.4,47.2c0.6-0.3,1.4-0.6,2.8-0.6c2.7,0,3.3,1.3,3.3,3.5v3.8c0,0.6,0.1,1.2,0.1,1.5h-1.9c-0.1-0.3-0.1-0.8-0.1-1.2h0
			c-0.5,0.7-1.2,1.3-2.4,1.3c-1.4,0-2.6-0.9-2.6-2.6c0-2.4,1.9-3,4.6-3h0.4v-0.3c0-0.9-0.4-1.7-1.6-1.7c-1.1,0-2,0.5-2.4,0.8
			L134.4,47.2z M138.6,51.1h-0.2c-1.8,0-2.9,0.4-2.9,1.6c0,0.8,0.5,1.3,1.3,1.3c1.3,0,1.7-0.9,1.7-2.5V51.1z"/>
		<path d="M143.3,44.9l2.1-0.6v2.4h1.7v1.5h-1.7v4.5c0,0.9,0.3,1.2,0.9,1.2c0.4,0,0.6-0.1,0.8-0.2v1.5c-0.3,0.2-0.8,0.3-1.4,0.3
			c-1.6,0-2.4-0.7-2.4-2.5v-4.8h-1.4v-1.5h1.4V44.9z"/>
		<path d="M148.6,43h2.2V45h-2.2V43z M148.6,46.7h2.1v8.7h-2.1V46.7z"/>
		<path d="M156.4,46.5c1.8,0,3.8,0.9,3.8,4.5c0,3.7-2,4.5-3.8,4.5c-1.8,0-3.8-0.8-3.8-4.5C152.6,47.5,154.7,46.5,156.4,46.5z
			 M156.4,54c1.4,0,1.7-1.6,1.7-3c0-1.5-0.3-3-1.7-3c-1.4,0-1.7,1.5-1.7,3C154.8,52.5,155.1,54,156.4,54z"/>
		<path d="M161.9,48.1c0-0.5,0-1-0.1-1.4h2c0,0.4,0.1,0.9,0.1,1.3h0c0.3-0.5,0.9-1.5,2.3-1.5c2,0,2.6,1.5,2.6,3.2v5.6h-2.1v-5.2
			c0-1.3-0.3-1.9-1.2-1.9c-1.1,0-1.5,0.9-1.5,2v5.1h-2.1V48.1z"/>
		<path d="M170.5,53.3c0.3,0.1,1.2,0.6,2.2,0.6c0.8,0,1.4-0.2,1.4-0.9c0-0.3-0.2-0.7-0.9-1.1l-0.9-0.5c-0.9-0.5-1.8-1.1-1.8-2.5
			c0-1.2,1.2-2.5,3-2.5c1.1,0,2,0.3,2.2,0.4l-0.1,1.6c-0.5-0.2-1.1-0.4-1.8-0.4c-0.8,0-1.2,0.3-1.2,0.8c0,0.5,0.4,0.7,1,1.1l1,0.7
			c1.1,0.7,1.6,1.2,1.6,2.2c0,1.6-1.4,2.6-3.2,2.6c-1.1,0-2-0.3-2.4-0.4L170.5,53.3z"/>
	</g>
</g>
</svg>
